<?xml version="1.0" standalone="no"?>
<svg xmlns="http://www.w3.org/2000/svg" viewBox="0 0 177.153 36" width="177.153" height="36"><g fill="#0C4767" color="#0C4767" transform="translate(0 6.239999999999998) scale(0.5600001)"><svg width="50.0" height="42.0" x="0.0" y="0.0" viewBox="0 0 50 42"><path fill="currentColor" fill-rule="nonzero" d="M21.3 13.56l5.81 12.46-10.95-2.3-5.81-12.46 10.95 2.3zm20.86-9.73l5.81 12.46-10.95-2.3-5.81-12.46 10.95 2.3zm-8.91 36.83L8.44 36.19 16 24.99l12.1 2.54c.05.01.09.01.13.01.09 0 .18-.02.27-.06.01 0 .01-.01.01-.01.03-.01.05-.04.08-.06.03-.02.05-.05.08-.07.03-.03.07-.05.09-.08l8.11-12.01 11.19 2.35-14.81 23.06zm16.45-23.3c.01-.02.02-.03.03-.05.01-.05-.02-.08-.03-.13 0-.07.01-.13-.02-.2-.01-.02.01-.05-.01-.07L43.19 3c-.01-.02-.03-.02-.03-.03-.04-.07-.11-.11-.18-.16-.07-.05-.12-.11-.2-.14-.02-.01-.02-.02-.04-.03L30.22.01c-.04-.01-.08.03-.13.03-.07 0-.13 0-.19.02-.03.01-.06-.01-.08 0-.01.01-.02.03-.03.03-.05.03-.08.07-.12.12-.03.03-.08.03-.11.07l-8.11 12.01-12.1-2.54c-.05-.01-.08.02-.13.02-.07 0-.12 0-.19.02-.03.01-.06-.01-.08.01-.02.01-.02.03-.03.03-.05.03-.08.07-.12.12-.03.03-.08.03-.11.07L.34 22.37c-.02.02 0 .05-.02.08-.04.08-.04.15-.05.23-.01.08-.02.16.01.24.02.03 0 .05.01.08l6.49 13.91c.01.02.03.03.05.05.02.04.04.06.07.09.03.03.05.06.08.08.01.01.01.03.02.04 0 0 .01 0 .01.01.05.03.11.04.17.05.03.01.04.04.06.04l26.2 4.72a.61.61 0 0 0 .48-.12c.03-.02.05-.05.08-.07.03-.03.07-.05.1-.09l15.54-24.18c.02-.02 0-.05.01-.07.02-.04.03-.07.05-.1z"></path></svg></g><path fill="#ffffff" fill-rule="nonzero" d="M0 17.46L0 1.83Q1.17 1.88 1.42 1.88L1.42 1.88L2.26 1.88Q2.88 1.88 3.26 1.78L3.26 1.78L3.25 17.46L0 17.46ZM10.44 9.27L10.44 15.96Q10.44 16.99 10.54 17.46L10.54 17.46L7.59 17.46L7.59 5.21L10.44 5.21L10.44 6.26Q11.99 4.98 13.75 4.98L13.75 4.98Q15.67 4.98 16.82 6.29Q17.96 7.59 17.96 9.73L17.96 9.73L17.96 14.39Q17.96 16.37 18.02 16.77Q18.08 17.17 18.18 17.29Q18.28 17.40 18.35 17.50L18.35 17.50L18.33 17.54Q17.38 17.46 16.95 17.46L16.95 17.46L16.13 17.46Q15.75 17.46 15.12 17.50L15.12 17.50L15.12 11.11Q15.12 7.68 13.03 7.68L13.03 7.68Q11.48 7.68 10.44 9.27L10.44 9.27ZM29.79 16.80L29.79 16.80Q28.30 17.64 26.81 17.64Q25.32 17.64 24.21 17.17Q23.10 16.70 22.31 15.88L22.31 15.88Q20.70 14.19 20.70 11.50L20.70 11.50Q20.70 8.71 22.57 6.86L22.57 6.86Q24.46 4.98 27.40 4.98L27.40 4.98Q28.30 4.98 29.17 5.21L29.17 5.21L29.17 0L32.04 0L32.04 12.53Q32.04 14.09 32.19 14.57Q32.33 15.05 32.51 15.27Q32.70 15.49 32.98 15.69L32.98 15.69L30.77 17.64Q30.16 17.31 29.79 16.80ZM27.36 14.94L27.36 14.94Q28.35 14.94 29.17 14.57L29.17 14.57L29.17 8.07Q28.35 7.73 27.39 7.73Q26.43 7.73 25.74 7.99Q25.05 8.25 24.56 8.71L24.56 8.71Q23.53 9.67 23.53 11.20L23.53 11.20Q23.53 12.88 24.47 13.88L24.47 13.88Q25.48 14.94 27.36 14.94ZM34.83 11.44L34.83 11.44Q34.83 10.07 35.30 8.89Q35.77 7.72 36.62 6.84L36.62 6.84Q38.45 4.98 41.40 4.98L41.40 4.98Q43.90 4.98 45.41 6.63L45.41 6.63Q46.90 8.23 46.90 10.64L46.90 10.64Q46.90 11.57 46.76 11.91L46.76 11.91Q45.59 12.23 41.99 12.23L41.99 12.23L37.86 12.23Q38.17 13.49 39.28 14.19Q40.39 14.88 42.18 14.88L42.18 14.88Q44.04 14.88 45.38 14.21L45.38 14.21Q45.73 14.04 45.90 13.89L45.90 13.89Q45.88 14.38 45.84 14.89L45.84 14.89L45.71 16.72Q44.82 17.33 42.83 17.57L42.83 17.57Q42.25 17.64 41.71 17.64L41.71 17.64Q38.73 17.64 36.79 15.90L36.79 15.90Q34.83 14.16 34.83 11.44ZM43.78 9.96L43.78 9.96Q43.30 7.44 41.04 7.44L41.04 7.44Q39.26 7.44 38.33 8.98L38.33 8.98Q38.05 9.45 37.90 10.01L37.90 10.01Q38.18 10.02 38.59 10.03L38.59 10.03L39.46 10.03Q39.89 10.04 40.29 10.04L40.29 10.04L40.96 10.04Q41.55 10.04 42.13 10.03L42.13 10.03L43.09 10.00Q43.48 9.98 43.78 9.96ZM52.49 17.21L52.49 17.21L52.49 20.66Q52.49 21.67 52.54 21.97L52.54 21.97L49.62 21.97L49.62 5.21L52.49 5.21L52.49 5.98Q53.91 4.98 55.21 4.98Q56.51 4.98 57.52 5.34Q58.52 5.71 59.29 6.47L59.29 6.47Q60.96 8.12 60.96 11.18L60.96 11.18Q60.96 13.21 60.01 14.80L60.01 14.80Q59.20 16.15 57.77 16.96L57.77 16.96Q56.51 17.67 55.03 17.67Q53.55 17.67 52.49 17.21ZM52.49 8.61L52.49 14.26Q53.38 15.01 54.80 15.01L54.80 15.01Q57.12 15.01 57.80 12.77L57.80 12.77Q58.03 12.01 58.03 11.14Q58.03 10.27 57.87 9.74Q57.70 9.22 57.44 8.84Q57.18 8.46 56.85 8.21Q56.52 7.96 56.18 7.80L56.18 7.80Q55.58 7.54 54.95 7.54Q54.32 7.54 53.64 7.83Q52.96 8.12 52.49 8.61L52.49 8.61ZM62.84 11.44L62.84 11.44Q62.84 10.07 63.30 8.89Q63.77 7.72 64.63 6.84L64.63 6.84Q66.46 4.98 69.41 4.98L69.41 4.98Q71.91 4.98 73.42 6.63L73.42 6.63Q74.91 8.23 74.91 10.64L74.91 10.64Q74.91 11.57 74.77 11.91L74.77 11.91Q73.59 12.23 70.00 12.23L70.00 12.23L65.87 12.23Q66.18 13.49 67.29 14.19Q68.40 14.88 70.18 14.88L70.18 14.88Q72.05 14.88 73.38 14.21L73.38 14.21Q73.73 14.04 73.91 13.89L73.91 13.89Q73.89 14.38 73.85 14.89L73.85 14.89L73.72 16.72Q72.83 17.33 70.84 17.57L70.84 17.57Q70.25 17.64 69.71 17.64L69.71 17.64Q66.74 17.64 64.79 15.90L64.79 15.90Q62.84 14.16 62.84 11.44ZM71.79 9.96L71.79 9.96Q71.31 7.44 69.05 7.44L69.05 7.44Q67.27 7.44 66.34 8.98L66.34 8.98Q66.06 9.45 65.91 10.01L65.91 10.01Q66.19 10.02 66.60 10.03L66.60 10.03L67.46 10.03Q67.90 10.04 68.30 10.04L68.30 10.04L68.96 10.04Q69.56 10.04 70.14 10.03L70.14 10.03L71.10 10.00Q71.48 9.98 71.79 9.96ZM80.53 9.27L80.53 15.96Q80.53 16.99 80.63 17.46L80.63 17.46L77.68 17.46L77.68 5.21L80.53 5.21L80.53 6.26Q82.08 4.98 83.84 4.98L83.84 4.98Q85.76 4.98 86.91 6.29Q88.05 7.59 88.05 9.73L88.05 9.73L88.05 14.39Q88.05 16.37 88.11 16.77Q88.17 17.17 88.27 17.29Q88.37 17.40 88.44 17.50L88.44 17.50L88.42 17.54Q87.47 17.46 87.04 17.46L87.04 17.46L86.21 17.46Q85.84 17.46 85.21 17.50L85.21 17.50L85.21 11.11Q85.21 7.68 83.12 7.68L83.12 7.68Q81.57 7.68 80.53 9.27L80.53 9.27ZM99.88 16.80L99.88 16.80Q98.39 17.64 96.90 17.64Q95.41 17.64 94.30 17.17Q93.19 16.70 92.40 15.88L92.40 15.88Q90.79 14.19 90.79 11.50L90.79 11.50Q90.79 8.71 92.66 6.86L92.66 6.86Q94.55 4.98 97.49 4.98L97.49 4.98Q98.39 4.98 99.26 5.21L99.26 5.21L99.26 0L102.13 0L102.13 12.53Q102.13 14.09 102.28 14.57Q102.42 15.05 102.60 15.27Q102.79 15.49 103.07 15.69L103.07 15.69L100.86 17.64Q100.25 17.31 99.88 16.80ZM97.45 14.94L97.45 14.94Q98.44 14.94 99.26 14.57L99.26 14.57L99.26 8.07Q98.44 7.73 97.48 7.73Q96.52 7.73 95.83 7.99Q95.14 8.25 94.65 8.71L94.65 8.71Q93.62 9.67 93.62 11.20L93.62 11.20Q93.62 12.88 94.56 13.88L94.56 13.88Q95.57 14.94 97.45 14.94ZM113.59 16.73L113.59 16.73Q111.93 17.64 110.58 17.64Q109.23 17.64 108.27 17.38Q107.31 17.13 106.64 16.64L106.64 16.64Q105.28 15.64 105.28 13.76L105.28 13.76Q105.28 12.07 106.95 10.95L106.95 10.95Q108.75 9.73 111.84 9.73L111.84 9.73L112.31 9.74Q112.45 9.75 112.63 9.76Q112.80 9.76 112.95 9.79L112.95 9.79Q112.85 7.91 111.33 7.59L111.33 7.59Q110.82 7.49 110.26 7.49Q109.69 7.49 109.14 7.59Q108.60 7.69 108.08 7.85L108.08 7.85Q106.95 8.21 106.45 8.68L106.45 8.68L106.42 8.66L106.07 6.07Q108.14 4.98 110.60 4.98L110.60 4.98Q114.42 4.98 115.49 7.73L115.49 7.73Q115.83 8.61 115.83 9.71L115.83 9.71L115.83 13.96Q115.83 15.32 116.79 15.81L116.79 15.81L114.67 17.75Q114 17.40 113.59 16.73ZM112.96 14.34L112.96 11.89Q112.64 11.84 112.30 11.84L112.30 11.84L111.83 11.84Q109.24 11.84 108.54 12.98L108.54 12.98Q108.33 13.32 108.33 13.70Q108.33 14.07 108.46 14.36Q108.60 14.65 108.91 14.84L108.91 14.84Q109.52 15.19 110.72 15.19Q111.93 15.19 112.97 14.61L112.97 14.61Q112.96 14.48 112.96 14.34L112.96 14.34ZM122.57 9.27L122.57 15.96Q122.57 16.99 122.66 17.46L122.66 17.46L119.72 17.46L119.72 5.21L122.57 5.21L122.57 6.26Q124.11 4.98 125.87 4.98L125.87 4.98Q127.79 4.98 128.94 6.29Q130.09 7.59 130.09 9.73L130.09 9.73L130.09 14.39Q130.09 16.37 130.15 16.77Q130.21 17.17 130.31 17.29Q130.41 17.40 130.48 17.50L130.48 17.50L130.45 17.54Q129.50 17.46 129.07 17.46L129.07 17.46L128.25 17.46Q127.88 17.46 127.24 17.50L127.24 17.50L127.24 11.11Q127.24 7.68 125.16 7.68L125.16 7.68Q123.61 7.68 122.57 9.27L122.57 9.27ZM138.95 14.88L138.95 14.88Q140.46 14.88 141.02 14.10L141.02 14.10L141.12 14.10L141.15 16.82Q140.58 17.39 139.02 17.58L139.02 17.58Q138.60 17.64 137.97 17.64Q137.34 17.64 136.61 17.40Q135.88 17.17 135.36 16.64L135.36 16.64Q134.30 15.55 134.30 13.23L134.30 13.23L134.30 7.91L132.53 7.91Q132.52 7.57 132.52 7.22L132.52 7.22L132.52 5.41Q132.52 5.21 132.53 5.21L132.53 5.21L134.30 5.21L134.30 1.88L137.17 1.88L137.17 5.21L140.39 5.21L140.39 7.91L137.17 7.91L137.17 12.69Q137.17 14.53 138.19 14.79L138.19 14.79Q138.52 14.88 138.95 14.88Z" transform="translate(36, 9.27)"></path></svg>